<?xml version="1.0" encoding="UTF-8"?>
<svg xmlns="http://www.w3.org/2000/svg" width="903" height="502" viewBox="0 0 903 502" role="img" aria-label="ParkPal logo">
  <title>ParkPal Logo</title>
  <path d="M 67.0 445.0 L 73.0 451.0 L 83.0 456.0 L 95.0 459.0 L 103.0 459.0 L 114.0 456.0 L 124.0 450.0 L 128.0 446.0 Z M 478.0 427.0 L 432.0 431.0 L 431.0 432.0 L 422.0 432.0 L 421.0 433.0 L 411.0 433.0 L 410.0 434.0 L 377.0 436.0 L 376.0 437.0 L 323.0 440.0 L 400.0 439.0 L 401.0 438.0 L 407.0 438.0 L 414.0 436.0 L 420.0 436.0 L 421.0 435.0 L 453.0 431.0 L 466.0 428.0 Z M 222.0 422.0 L 222.0 441.0 L 217.0 444.0 L 209.0 444.0 L 221.0 455.0 L 225.0 456.0 L 246.0 456.0 L 238.0 452.0 L 229.0 443.0 L 225.0 436.0 L 222.0 427.0 Z M 213.0 416.0 L 212.0 415.0 L 208.0 416.0 L 174.0 416.0 L 167.0 424.0 L 162.0 426.0 L 133.0 427.0 L 132.0 428.0 L 101.0 428.0 L 100.0 429.0 L 59.0 427.0 L 58.0 426.0 L 41.0 424.0 L 32.0 420.0 L 30.0 423.0 L 30.0 429.0 L 33.0 432.0 L 40.0 435.0 L 50.0 437.0 L 59.0 437.0 L 60.0 438.0 L 71.0 438.0 L 72.0 439.0 L 93.0 439.0 L 94.0 440.0 L 177.0 439.0 L 178.0 438.0 L 211.0 436.0 L 212.0 435.0 Z M 429.0 415.0 L 416.0 414.0 L 415.0 413.0 L 317.0 415.0 L 330.0 415.0 L 331.0 416.0 L 417.0 416.0 L 418.0 415.0 Z M 437.0 386.0 L 434.0 391.0 L 427.0 398.0 L 421.0 401.0 L 400.0 402.0 L 399.0 403.0 L 383.0 403.0 L 382.0 404.0 L 366.0 404.0 L 365.0 405.0 L 349.0 405.0 L 348.0 406.0 L 313.0 407.0 L 426.0 405.0 L 432.0 400.0 Z M 253.0 368.0 L 243.0 371.0 L 233.0 381.0 L 229.0 389.0 L 226.0 399.0 L 225.0 415.0 L 228.0 431.0 L 234.0 443.0 L 240.0 449.0 L 245.0 452.0 L 252.0 454.0 L 258.0 454.0 L 255.0 454.0 L 249.0 451.0 L 244.0 447.0 L 239.0 440.0 L 234.0 425.0 L 233.0 409.0 L 232.0 408.0 L 234.0 391.0 L 239.0 379.0 L 247.0 371.0 L 254.0 368.0 L 257.0 368.0 Z M 51.0 361.0 L 45.0 367.0 L 41.0 376.0 L 41.0 380.0 L 46.0 375.0 L 50.0 367.0 Z M 138.0 355.0 L 130.0 361.0 L 128.0 364.0 L 127.0 370.0 L 129.0 373.0 L 128.0 371.0 L 129.0 365.0 Z M 172.0 353.0 L 166.0 356.0 L 161.0 362.0 L 160.0 366.0 L 161.0 369.0 L 165.0 372.0 L 161.0 368.0 L 161.0 363.0 L 167.0 356.0 Z M 191.0 355.0 L 188.0 352.0 L 177.0 353.0 L 170.0 357.0 L 165.0 362.0 L 164.0 368.0 L 169.0 372.0 L 181.0 371.0 L 190.0 363.0 L 192.0 359.0 Z M 158.0 354.0 L 156.0 352.0 L 147.0 352.0 L 141.0 355.0 L 133.0 363.0 L 131.0 367.0 L 132.0 374.0 L 136.0 376.0 L 139.0 376.0 L 149.0 372.0 L 156.0 365.0 L 158.0 361.0 Z M 115.0 354.0 L 111.0 352.0 L 80.0 351.0 L 60.0 356.0 L 55.0 360.0 L 49.0 377.0 L 49.0 382.0 L 50.0 383.0 L 61.0 383.0 L 62.0 382.0 L 98.0 381.0 L 105.0 375.0 L 111.0 366.0 L 115.0 358.0 Z M 260.0 334.0 L 222.0 334.0 L 221.0 333.0 L 157.0 334.0 L 101.0 341.0 L 75.0 347.0 L 63.0 352.0 L 84.0 347.0 L 112.0 348.0 L 121.0 350.0 L 122.0 354.0 L 109.0 378.0 L 117.0 368.0 L 128.0 358.0 L 148.0 346.0 L 214.0 336.0 L 237.0 334.0 Z M 392.0 336.0 L 393.0 338.0 L 416.0 338.0 L 417.0 339.0 L 430.0 339.0 L 440.0 341.0 L 429.0 329.0 L 422.0 324.0 L 410.0 318.0 L 406.0 318.0 L 403.0 320.0 Z M 400.0 314.0 L 391.0 310.0 L 373.0 305.0 L 367.0 305.0 L 366.0 304.0 L 346.0 305.0 L 335.0 309.0 L 324.0 317.0 L 314.0 329.0 L 311.0 335.0 L 380.0 337.0 L 384.0 338.0 L 390.0 327.0 L 400.0 316.0 Z M 326.0 300.0 L 324.0 299.0 L 285.0 299.0 L 284.0 300.0 L 272.0 300.0 L 271.0 301.0 L 261.0 301.0 L 260.0 302.0 L 247.0 303.0 L 220.0 311.0 L 176.0 329.0 L 187.0 329.0 L 188.0 328.0 L 290.0 329.0 L 299.0 325.0 L 313.0 312.0 L 325.0 303.0 Z M 684.0 272.0 L 666.0 293.0 L 658.0 312.0 L 655.0 327.0 L 655.0 349.0 L 658.0 364.0 L 664.0 379.0 L 676.0 396.0 L 692.0 409.0 L 702.0 414.0 L 717.0 418.0 L 729.0 419.0 L 747.0 416.0 L 759.0 411.0 L 774.0 399.0 L 776.0 400.0 L 776.0 414.0 L 813.0 414.0 L 813.0 262.0 L 776.0 262.0 L 775.0 278.0 L 759.0 266.0 L 736.0 258.0 L 708.0 260.0 L 699.0 263.0 Z M 728.0 292.0 L 746.0 293.0 L 760.0 300.0 L 769.0 309.0 L 772.0 314.0 L 777.0 329.0 L 777.0 347.0 L 774.0 358.0 L 771.0 364.0 L 766.0 371.0 L 758.0 378.0 L 743.0 384.0 L 726.0 384.0 L 719.0 382.0 L 712.0 378.0 L 700.0 366.0 L 695.0 356.0 L 693.0 348.0 L 693.0 339.0 L 692.0 338.0 L 693.0 337.0 L 693.0 328.0 L 695.0 320.0 L 699.0 312.0 L 706.0 303.0 L 711.0 299.0 L 720.0 294.0 Z M 608.0 267.0 L 592.0 260.0 L 564.0 258.0 L 542.0 265.0 L 525.0 278.0 L 524.0 262.0 L 486.0 262.0 L 485.0 360.0 L 424.0 314.0 L 385.0 299.0 L 420.0 313.0 L 459.0 345.0 L 486.0 362.0 L 487.0 471.0 L 524.0 471.0 L 525.0 399.0 L 537.0 409.0 L 555.0 417.0 L 583.0 418.0 L 612.0 406.0 L 635.0 380.0 L 644.0 353.0 L 643.0 317.0 L 631.0 289.0 Z M 558.0 292.0 L 576.0 293.0 L 582.0 295.0 L 590.0 300.0 L 600.0 311.0 L 605.0 321.0 L 607.0 330.0 L 607.0 347.0 L 605.0 355.0 L 599.0 367.0 L 589.0 377.0 L 574.0 384.0 L 557.0 384.0 L 542.0 378.0 L 530.0 366.0 L 525.0 357.0 L 525.0 354.0 L 523.0 350.0 L 522.0 332.0 L 524.0 322.0 L 529.0 311.0 L 542.0 298.0 Z M 835.0 203.0 L 835.0 414.0 L 872.0 414.0 L 872.0 203.0 Z M 627.0 85.0 L 617.0 85.0 L 609.0 87.0 L 596.0 95.0 L 583.0 110.0 L 582.0 109.0 L 582.0 89.0 L 563.0 89.0 L 563.0 240.0 L 582.0 240.0 L 582.0 150.0 L 588.0 127.0 L 595.0 115.0 L 604.0 107.0 L 613.0 103.0 L 622.0 103.0 L 629.0 105.0 L 638.0 91.0 L 637.0 89.0 Z M 395.0 109.0 L 385.0 122.0 L 379.0 134.0 L 374.0 152.0 L 373.0 165.0 L 374.0 177.0 L 379.0 195.0 L 389.0 213.0 L 400.0 225.0 L 423.0 239.0 L 438.0 243.0 L 457.0 244.0 L 473.0 241.0 L 489.0 234.0 L 512.0 215.0 L 513.0 240.0 L 531.0 240.0 L 531.0 89.0 L 513.0 89.0 L 512.0 116.0 L 495.0 99.0 L 477.0 89.0 L 458.0 85.0 L 438.0 86.0 L 423.0 90.0 L 404.0 101.0 Z M 445.0 103.0 L 461.0 103.0 L 476.0 107.0 L 490.0 115.0 L 501.0 126.0 L 507.0 135.0 L 512.0 148.0 L 514.0 157.0 L 513.0 179.0 L 509.0 192.0 L 503.0 202.0 L 494.0 212.0 L 486.0 218.0 L 476.0 223.0 L 460.0 227.0 L 445.0 227.0 L 436.0 225.0 L 426.0 221.0 L 412.0 211.0 L 405.0 203.0 L 396.0 187.0 L 392.0 168.0 L 393.0 153.0 L 397.0 140.0 L 408.0 123.0 L 424.0 110.0 L 430.0 107.0 Z M 318.0 95.0 L 293.0 86.0 L 273.0 85.0 L 261.0 87.0 L 236.0 99.0 L 219.0 116.0 L 218.0 89.0 L 200.0 89.0 L 200.0 296.0 L 218.0 296.0 L 219.0 215.0 L 237.0 231.0 L 250.0 238.0 L 267.0 243.0 L 284.0 244.0 L 302.0 241.0 L 320.0 233.0 L 337.0 219.0 L 347.0 205.0 L 357.0 177.0 L 358.0 163.0 L 355.0 143.0 L 341.0 115.0 Z M 270.0 103.0 L 292.0 104.0 L 301.0 107.0 L 313.0 114.0 L 323.0 123.0 L 331.0 134.0 L 338.0 153.0 L 339.0 168.0 L 338.0 169.0 L 337.0 181.0 L 327.0 202.0 L 320.0 210.0 L 307.0 220.0 L 298.0 224.0 L 286.0 227.0 L 270.0 227.0 L 261.0 225.0 L 245.0 218.0 L 238.0 213.0 L 231.0 206.0 L 224.0 196.0 L 219.0 183.0 L 217.0 174.0 L 218.0 152.0 L 222.0 139.0 L 227.0 130.0 L 241.0 115.0 L 255.0 107.0 Z M 643.0 30.0 L 643.0 240.0 L 661.0 240.0 L 662.0 172.0 L 738.0 240.0 L 764.0 240.0 L 677.0 161.0 L 760.0 89.0 L 732.0 89.0 L 662.0 150.0 L 661.0 30.0 Z" fill="#1B579D" fill-rule="evenodd"/>
</svg>
