<?xml version="1.0" encoding="UTF-8" standalone="no"?>
<!DOCTYPE svg PUBLIC "-//W3C//DTD SVG 1.1//EN"
 "http://www.w3.org/Graphics/SVG/1.1/DTD/svg11.dtd">
<!-- Generated by graphviz version 2.42.4 (0)
 -->
<!-- Title: ERD Pages: 1 -->
<svg width="1510pt" height="1706pt"
 viewBox="0.00 0.00 1509.80 1705.80" xmlns="http://www.w3.org/2000/svg" xmlns:xlink="http://www.w3.org/1999/xlink">
<g id="graph0" class="graph" transform="scale(1 1) rotate(0) translate(14.4 1691.4)">
<title>ERD</title>
<polygon fill="white" stroke="transparent" points="-14.4,14.4 -14.4,-1691.4 1495.4,-1691.4 1495.4,14.4 -14.4,14.4"/>
<!-- users -->
<g id="node1" class="node">
<title>users</title>
<polygon fill="#1e3a8a" stroke="transparent" points="1.5,-1042 1.5,-1071 162.5,-1071 162.5,-1042 1.5,-1042"/>
<polygon fill="none" stroke="#1e3a8a" points="1.5,-1042 1.5,-1071 162.5,-1071 162.5,-1042 1.5,-1042"/>
<text text-anchor="start" x="63.5" y="-1053.8" font-family="Arial" font-weight="bold" font-size="14.00" fill="white">users</text>
<polygon fill="none" stroke="#1e3a8a" points="1.5,-1013 1.5,-1042 162.5,-1042 162.5,-1013 1.5,-1013"/>
<text text-anchor="start" x="8.5" y="-1024.8" font-family="Arial" font-weight="bold" font-size="14.00">PK</text>
<text text-anchor="start" x="27.5" y="-1024.8" font-family="Arial" font-size="14.00"> id : String (UUID)</text>
<polygon fill="none" stroke="#1e3a8a" points="1.5,-984 1.5,-1013 162.5,-1013 162.5,-984 1.5,-984"/>
<text text-anchor="start" x="8.5" y="-994.8" font-family="Arial" font-size="14.00">fullName : String</text>
<polygon fill="none" stroke="#1e3a8a" points="1.5,-955 1.5,-984 162.5,-984 162.5,-955 1.5,-955"/>
<text text-anchor="start" x="8.5" y="-965.8" font-family="Arial" font-size="14.00">email : String UNIQUE</text>
<polygon fill="none" stroke="#1e3a8a" points="1.5,-926 1.5,-955 162.5,-955 162.5,-926 1.5,-926"/>
<text text-anchor="start" x="8.5" y="-936.8" font-family="Arial" font-size="14.00">passwordHash : String</text>
<polygon fill="none" stroke="#1e3a8a" points="1.5,-897 1.5,-926 162.5,-926 162.5,-897 1.5,-897"/>
<text text-anchor="start" x="8.5" y="-907.8" font-family="Arial" font-size="14.00">role : UserRole</text>
<polygon fill="none" stroke="#1e3a8a" points="1.5,-868 1.5,-897 162.5,-897 162.5,-868 1.5,-868"/>
<text text-anchor="start" x="8.5" y="-878.8" font-family="Arial" font-size="14.00">status : UserStatus</text>
<polygon fill="none" stroke="#1e3a8a" points="1.5,-839 1.5,-868 162.5,-868 162.5,-839 1.5,-839"/>
<text text-anchor="start" x="8.5" y="-849.8" font-family="Arial" font-size="14.00">phoneNumber : String?</text>
<polygon fill="none" stroke="#1e3a8a" points="1.5,-810 1.5,-839 162.5,-839 162.5,-810 1.5,-810"/>
<text text-anchor="start" x="8.5" y="-820.8" font-family="Arial" font-size="14.00">profileImageUrl : String?</text>
<polygon fill="none" stroke="#1e3a8a" points="1.5,-781 1.5,-810 162.5,-810 162.5,-781 1.5,-781"/>
<text text-anchor="start" x="8.5" y="-791.8" font-family="Arial" font-size="14.00">createdAt, updatedAt</text>
<polygon fill="none" stroke="#1e3a8a" points="0,-780 0,-1072 163,-1072 163,-780 0,-780"/>
</g>
<!-- owner_profiles -->
<g id="node2" class="node">
<title>owner_profiles</title>
<polygon fill="#1e3a8a" stroke="transparent" points="316.5,-1647 316.5,-1676 494.5,-1676 494.5,-1647 316.5,-1647"/>
<polygon fill="none" stroke="#1e3a8a" points="316.5,-1647 316.5,-1676 494.5,-1676 494.5,-1647 316.5,-1647"/>
<text text-anchor="start" x="357" y="-1658.8" font-family="Arial" font-weight="bold" font-size="14.00" fill="white">owner_profiles</text>
<polygon fill="none" stroke="#1e3a8a" points="316.5,-1618 316.5,-1647 494.5,-1647 494.5,-1618 316.5,-1618"/>
<text text-anchor="start" x="323.5" y="-1629.8" font-family="Arial" font-weight="bold" font-size="14.00">PK</text>
<text text-anchor="start" x="342.5" y="-1629.8" font-family="Arial" font-size="14.00"> id : String (UUID)</text>
<polygon fill="none" stroke="#1e3a8a" points="316.5,-1589 316.5,-1618 494.5,-1618 494.5,-1589 316.5,-1589"/>
<text text-anchor="start" x="323.5" y="-1600.8" font-family="Arial" font-weight="bold" font-size="14.00">FK</text>
<text text-anchor="start" x="342.5" y="-1600.8" font-family="Arial" font-size="14.00"> userId : String UNIQUE</text>
<polygon fill="none" stroke="#1e3a8a" points="316.5,-1560 316.5,-1589 494.5,-1589 494.5,-1560 316.5,-1560"/>
<text text-anchor="start" x="323.5" y="-1570.8" font-family="Arial" font-size="14.00">bankAccount : String?</text>
<polygon fill="none" stroke="#1e3a8a" points="316.5,-1531 316.5,-1560 494.5,-1560 494.5,-1531 316.5,-1531"/>
<text text-anchor="start" x="323.5" y="-1541.8" font-family="Arial" font-size="14.00">taxId : String?</text>
<polygon fill="none" stroke="#1e3a8a" points="316.5,-1502 316.5,-1531 494.5,-1531 494.5,-1502 316.5,-1502"/>
<text text-anchor="start" x="323.5" y="-1512.8" font-family="Arial" font-size="14.00">verified : Boolean</text>
<polygon fill="none" stroke="#1e3a8a" points="316.5,-1473 316.5,-1502 494.5,-1502 494.5,-1473 316.5,-1473"/>
<text text-anchor="start" x="323.5" y="-1483.8" font-family="Arial" font-size="14.00">totalEarnings : Float</text>
<polygon fill="none" stroke="#1e3a8a" points="316.5,-1444 316.5,-1473 494.5,-1473 494.5,-1444 316.5,-1444"/>
<text text-anchor="start" x="323.5" y="-1454.8" font-family="Arial" font-size="14.00">createdAt, updatedAt</text>
<polygon fill="none" stroke="#1e3a8a" points="315.5,-1443 315.5,-1677 495.5,-1677 495.5,-1443 315.5,-1443"/>
</g>
<!-- users&#45;&gt;owner_profiles -->
<g id="edge1" class="edge">
<title>users&#45;&gt;owner_profiles</title>
<path fill="none" stroke="#334155" d="M41,-1072.25C41,-1259.48 41,-1560 41,-1560 41,-1560 307.4,-1560 307.4,-1560"/>
<polygon fill="#334155" stroke="#334155" points="307.4,-1562.8 315.4,-1560 307.4,-1557.2 307.4,-1562.8"/>
<text text-anchor="middle" x="230.5" y="-1563" font-family="Arial" font-size="10.00">1 : 0..1</text>
</g>
<!-- parking_locations -->
<g id="node3" class="node">
<title>parking_locations</title>
<polygon fill="#1e3a8a" stroke="transparent" points="299.5,-1100 299.5,-1129 512.5,-1129 512.5,-1100 299.5,-1100"/>
<polygon fill="none" stroke="#1e3a8a" points="299.5,-1100 299.5,-1129 512.5,-1129 512.5,-1100 299.5,-1100"/>
<text text-anchor="start" x="348" y="-1111.8" font-family="Arial" font-weight="bold" font-size="14.00" fill="white">parking_locations</text>
<polygon fill="none" stroke="#1e3a8a" points="299.5,-1071 299.5,-1100 512.5,-1100 512.5,-1071 299.5,-1071"/>
<text text-anchor="start" x="306.5" y="-1082.8" font-family="Arial" font-weight="bold" font-size="14.00">PK</text>
<text text-anchor="start" x="325.5" y="-1082.8" font-family="Arial" font-size="14.00"> id : String (UUID)</text>
<polygon fill="none" stroke="#1e3a8a" points="299.5,-1042 299.5,-1071 512.5,-1071 512.5,-1042 299.5,-1042"/>
<text text-anchor="start" x="306.5" y="-1053.8" font-family="Arial" font-weight="bold" font-size="14.00">FK</text>
<text text-anchor="start" x="325.5" y="-1053.8" font-family="Arial" font-size="14.00"> ownerId : String?</text>
<polygon fill="none" stroke="#1e3a8a" points="299.5,-1013 299.5,-1042 512.5,-1042 512.5,-1013 299.5,-1013"/>
<text text-anchor="start" x="306.5" y="-1023.8" font-family="Arial" font-size="14.00">name, description?, address, city</text>
<polygon fill="none" stroke="#1e3a8a" points="299.5,-984 299.5,-1013 512.5,-1013 512.5,-984 299.5,-984"/>
<text text-anchor="start" x="306.5" y="-994.8" font-family="Arial" font-size="14.00">latitude, longitude : Float</text>
<polygon fill="none" stroke="#1e3a8a" points="299.5,-955 299.5,-984 512.5,-984 512.5,-955 299.5,-955"/>
<text text-anchor="start" x="306.5" y="-965.8" font-family="Arial" font-size="14.00">parkingType : ParkingType</text>
<polygon fill="none" stroke="#1e3a8a" points="299.5,-926 299.5,-955 512.5,-955 512.5,-926 299.5,-926"/>
<text text-anchor="start" x="306.5" y="-936.8" font-family="Arial" font-size="14.00">pricePerHour : Float</text>
<polygon fill="none" stroke="#1e3a8a" points="299.5,-897 299.5,-926 512.5,-926 512.5,-897 299.5,-897"/>
<text text-anchor="start" x="306.5" y="-907.8" font-family="Arial" font-size="14.00">totalSpots : Int</text>
<polygon fill="none" stroke="#1e3a8a" points="299.5,-868 299.5,-897 512.5,-897 512.5,-868 299.5,-868"/>
<text text-anchor="start" x="306.5" y="-878.8" font-family="Arial" font-size="14.00">availableSpots : Int?</text>
<polygon fill="none" stroke="#1e3a8a" points="299.5,-839 299.5,-868 512.5,-868 512.5,-839 299.5,-839"/>
<text text-anchor="start" x="306.5" y="-849.8" font-family="Arial" font-size="14.00">isActive, isApproved : Boolean</text>
<polygon fill="none" stroke="#1e3a8a" points="299.5,-810 299.5,-839 512.5,-839 512.5,-810 299.5,-810"/>
<text text-anchor="start" x="306.5" y="-820.8" font-family="Arial" font-size="14.00">approvalStatus : ApprovalStatus</text>
<polygon fill="none" stroke="#1e3a8a" points="299.5,-781 299.5,-810 512.5,-810 512.5,-781 299.5,-781"/>
<text text-anchor="start" x="306.5" y="-791.8" font-family="Arial" font-size="14.00">opensAt, closesAt : String</text>
<polygon fill="none" stroke="#1e3a8a" points="299.5,-752 299.5,-781 512.5,-781 512.5,-752 299.5,-752"/>
<text text-anchor="start" x="306.5" y="-762.8" font-family="Arial" font-size="14.00">amenities : String[]</text>
<polygon fill="none" stroke="#1e3a8a" points="299.5,-723 299.5,-752 512.5,-752 512.5,-723 299.5,-723"/>
<text text-anchor="start" x="306.5" y="-733.8" font-family="Arial" font-size="14.00">createdAt, updatedAt</text>
<polygon fill="none" stroke="#1e3a8a" points="298,-722 298,-1130 513,-1130 513,-722 298,-722"/>
</g>
<!-- users&#45;&gt;parking_locations -->
<g id="edge2" class="edge">
<title>users&#45;&gt;parking_locations</title>
<path fill="none" stroke="#334155" d="M163.26,-926C163.26,-926 289.73,-926 289.73,-926"/>
<polygon fill="#334155" stroke="#334155" points="289.73,-928.8 297.73,-926 289.73,-923.2 289.73,-928.8"/>
<text text-anchor="middle" x="230.5" y="-929" font-family="Arial" font-size="10.00">1 : 0..N owner</text>
</g>
<!-- reservations -->
<g id="node5" class="node">
<title>reservations</title>
<polygon fill="#1e3a8a" stroke="transparent" points="906.5,-1290 906.5,-1319 1129.5,-1319 1129.5,-1290 906.5,-1290"/>
<polygon fill="none" stroke="#1e3a8a" points="906.5,-1290 906.5,-1319 1129.5,-1319 1129.5,-1290 906.5,-1290"/>
<text text-anchor="start" x="977.5" y="-1301.8" font-family="Arial" font-weight="bold" font-size="14.00" fill="white">reservations</text>
<polygon fill="none" stroke="#1e3a8a" points="906.5,-1261 906.5,-1290 1129.5,-1290 1129.5,-1261 906.5,-1261"/>
<text text-anchor="start" x="913.5" y="-1272.8" font-family="Arial" font-weight="bold" font-size="14.00">PK</text>
<text text-anchor="start" x="932.5" y="-1272.8" font-family="Arial" font-size="14.00"> id : String (UUID)</text>
<polygon fill="none" stroke="#1e3a8a" points="906.5,-1232 906.5,-1261 1129.5,-1261 1129.5,-1232 906.5,-1232"/>
<text text-anchor="start" x="913.5" y="-1243.8" font-family="Arial" font-weight="bold" font-size="14.00">FK</text>
<text text-anchor="start" x="932.5" y="-1243.8" font-family="Arial" font-size="14.00"> userId : String</text>
<polygon fill="none" stroke="#1e3a8a" points="906.5,-1203 906.5,-1232 1129.5,-1232 1129.5,-1203 906.5,-1203"/>
<text text-anchor="start" x="913.5" y="-1214.8" font-family="Arial" font-weight="bold" font-size="14.00">FK</text>
<text text-anchor="start" x="932.5" y="-1214.8" font-family="Arial" font-size="14.00"> parkingLocationId : String</text>
<polygon fill="none" stroke="#1e3a8a" points="906.5,-1174 906.5,-1203 1129.5,-1203 1129.5,-1174 906.5,-1174"/>
<text text-anchor="start" x="913.5" y="-1185.8" font-family="Arial" font-weight="bold" font-size="14.00">FK</text>
<text text-anchor="start" x="932.5" y="-1185.8" font-family="Arial" font-size="14.00"> parkingSpotId : String?</text>
<polygon fill="none" stroke="#1e3a8a" points="906.5,-1145 906.5,-1174 1129.5,-1174 1129.5,-1145 906.5,-1145"/>
<text text-anchor="start" x="913.5" y="-1155.8" font-family="Arial" font-size="14.00">reservationType : ReservationType</text>
<polygon fill="none" stroke="#1e3a8a" points="906.5,-1116 906.5,-1145 1129.5,-1145 1129.5,-1116 906.5,-1116"/>
<text text-anchor="start" x="913.5" y="-1126.8" font-family="Arial" font-size="14.00">startTime, endTime : DateTime</text>
<polygon fill="none" stroke="#1e3a8a" points="906.5,-1087 906.5,-1116 1129.5,-1116 1129.5,-1087 906.5,-1087"/>
<text text-anchor="start" x="913.5" y="-1097.8" font-family="Arial" font-size="14.00">durationMinutes : Int</text>
<polygon fill="none" stroke="#1e3a8a" points="906.5,-1058 906.5,-1087 1129.5,-1087 1129.5,-1058 906.5,-1058"/>
<text text-anchor="start" x="913.5" y="-1068.8" font-family="Arial" font-size="14.00">chargedHours : Int?</text>
<polygon fill="none" stroke="#1e3a8a" points="906.5,-1029 906.5,-1058 1129.5,-1058 1129.5,-1029 906.5,-1029"/>
<text text-anchor="start" x="913.5" y="-1039.8" font-family="Arial" font-size="14.00">totalPrice : Float</text>
<polygon fill="none" stroke="#1e3a8a" points="906.5,-1000 906.5,-1029 1129.5,-1029 1129.5,-1000 906.5,-1000"/>
<text text-anchor="start" x="913.5" y="-1010.8" font-family="Arial" font-size="14.00">status : ReservationStatus</text>
<polygon fill="none" stroke="#1e3a8a" points="906.5,-971 906.5,-1000 1129.5,-1000 1129.5,-971 906.5,-971"/>
<text text-anchor="start" x="913.5" y="-981.8" font-family="Arial" font-size="14.00">qrCode : String UNIQUE</text>
<polygon fill="none" stroke="#1e3a8a" points="906.5,-942 906.5,-971 1129.5,-971 1129.5,-942 906.5,-942"/>
<text text-anchor="start" x="913.5" y="-952.8" font-family="Arial" font-size="14.00">ticketCode : String UNIQUE</text>
<polygon fill="none" stroke="#1e3a8a" points="906.5,-913 906.5,-942 1129.5,-942 1129.5,-913 906.5,-913"/>
<text text-anchor="start" x="913.5" y="-923.8" font-family="Arial" font-size="14.00">entryTime?, exitTime?</text>
<polygon fill="none" stroke="#1e3a8a" points="906.5,-884 906.5,-913 1129.5,-913 1129.5,-884 906.5,-884"/>
<text text-anchor="start" x="913.5" y="-894.8" font-family="Arial" font-size="14.00">createdAt, updatedAt</text>
<polygon fill="none" stroke="#1e3a8a" points="905,-883.5 905,-1320.5 1130,-1320.5 1130,-883.5 905,-883.5"/>
</g>
<!-- users&#45;&gt;reservations -->
<g id="edge4" class="edge">
<title>users&#45;&gt;reservations</title>
<path fill="none" stroke="#334155" d="M123,-1072.49C123,-1166.19 123,-1270.25 123,-1270.25 123,-1270.25 896.66,-1270.25 896.66,-1270.25"/>
<polygon fill="#334155" stroke="#334155" points="896.66,-1273.05 904.66,-1270.25 896.66,-1267.45 896.66,-1273.05"/>
<text text-anchor="middle" x="560" y="-1284" font-family="Arial" font-size="10.00">1 : N</text>
</g>
<!-- payments -->
<g id="node6" class="node">
<title>payments</title>
<polygon fill="#1e3a8a" stroke="transparent" points="1234,-1495 1234,-1524 1480,-1524 1480,-1495 1234,-1495"/>
<polygon fill="none" stroke="#1e3a8a" points="1234,-1495 1234,-1524 1480,-1524 1480,-1495 1234,-1495"/>
<text text-anchor="start" x="1325" y="-1506.8" font-family="Arial" font-weight="bold" font-size="14.00" fill="white">payments</text>
<polygon fill="none" stroke="#1e3a8a" points="1234,-1466 1234,-1495 1480,-1495 1480,-1466 1234,-1466"/>
<text text-anchor="start" x="1241" y="-1477.8" font-family="Arial" font-weight="bold" font-size="14.00">PK</text>
<text text-anchor="start" x="1260" y="-1477.8" font-family="Arial" font-size="14.00"> id : String (UUID)</text>
<polygon fill="none" stroke="#1e3a8a" points="1234,-1437 1234,-1466 1480,-1466 1480,-1437 1234,-1437"/>
<text text-anchor="start" x="1241" y="-1448.8" font-family="Arial" font-weight="bold" font-size="14.00">FK</text>
<text text-anchor="start" x="1260" y="-1448.8" font-family="Arial" font-size="14.00"> reservationId : String UNIQUE</text>
<polygon fill="none" stroke="#1e3a8a" points="1234,-1408 1234,-1437 1480,-1437 1480,-1408 1234,-1408"/>
<text text-anchor="start" x="1241" y="-1419.8" font-family="Arial" font-weight="bold" font-size="14.00">FK</text>
<text text-anchor="start" x="1260" y="-1419.8" font-family="Arial" font-size="14.00"> userId : String</text>
<polygon fill="none" stroke="#1e3a8a" points="1234,-1379 1234,-1408 1480,-1408 1480,-1379 1234,-1379"/>
<text text-anchor="start" x="1241" y="-1389.8" font-family="Arial" font-size="14.00">amount : Float</text>
<polygon fill="none" stroke="#1e3a8a" points="1234,-1350 1234,-1379 1480,-1379 1480,-1350 1234,-1350"/>
<text text-anchor="start" x="1241" y="-1360.8" font-family="Arial" font-size="14.00">currency : String</text>
<polygon fill="none" stroke="#1e3a8a" points="1234,-1321 1234,-1350 1480,-1350 1480,-1321 1234,-1321"/>
<text text-anchor="start" x="1241" y="-1331.8" font-family="Arial" font-size="14.00">paymentMethod : PaymentMethod</text>
<polygon fill="none" stroke="#1e3a8a" points="1234,-1292 1234,-1321 1480,-1321 1480,-1292 1234,-1292"/>
<text text-anchor="start" x="1241" y="-1302.8" font-family="Arial" font-size="14.00">paymentStatus : PaymentStatus</text>
<polygon fill="none" stroke="#1e3a8a" points="1234,-1263 1234,-1292 1480,-1292 1480,-1263 1234,-1263"/>
<text text-anchor="start" x="1241" y="-1273.8" font-family="Arial" font-size="14.00">transactionReference : String UNIQUE</text>
<polygon fill="none" stroke="#1e3a8a" points="1234,-1234 1234,-1263 1480,-1263 1480,-1234 1234,-1234"/>
<text text-anchor="start" x="1241" y="-1244.8" font-family="Arial" font-size="14.00">paidAt?, createdAt</text>
<polygon fill="none" stroke="#1e3a8a" points="1233,-1233 1233,-1525 1481,-1525 1481,-1233 1233,-1233"/>
</g>
<!-- users&#45;&gt;payments -->
<g id="edge8" class="edge">
<title>users&#45;&gt;payments</title>
<path fill="none" stroke="#334155" d="M82,-1072.08C82,-1205.39 82,-1381.75 82,-1381.75 82,-1381.75 1224.72,-1381.75 1224.72,-1381.75"/>
<polygon fill="#334155" stroke="#334155" points="1224.72,-1384.55 1232.72,-1381.75 1224.72,-1378.95 1224.72,-1384.55"/>
<text text-anchor="middle" x="703" y="-1385" font-family="Arial" font-size="10.00">1 : N</text>
</g>
<!-- reviews -->
<g id="node9" class="node">
<title>reviews</title>
<polygon fill="#1e3a8a" stroke="transparent" points="1248,-768 1248,-797 1467,-797 1467,-768 1248,-768"/>
<polygon fill="none" stroke="#1e3a8a" points="1248,-768 1248,-797 1467,-797 1467,-768 1248,-768"/>
<text text-anchor="start" x="1332" y="-779.8" font-family="Arial" font-weight="bold" font-size="14.00" fill="white">reviews</text>
<polygon fill="none" stroke="#1e3a8a" points="1248,-739 1248,-768 1467,-768 1467,-739 1248,-739"/>
<text text-anchor="start" x="1255" y="-750.8" font-family="Arial" font-weight="bold" font-size="14.00">PK</text>
<text text-anchor="start" x="1274" y="-750.8" font-family="Arial" font-size="14.00"> id : String (UUID)</text>
<polygon fill="none" stroke="#1e3a8a" points="1248,-710 1248,-739 1467,-739 1467,-710 1248,-710"/>
<text text-anchor="start" x="1255" y="-721.8" font-family="Arial" font-weight="bold" font-size="14.00">FK</text>
<text text-anchor="start" x="1274" y="-721.8" font-family="Arial" font-size="14.00"> userId : String</text>
<polygon fill="none" stroke="#1e3a8a" points="1248,-681 1248,-710 1467,-710 1467,-681 1248,-681"/>
<text text-anchor="start" x="1255" y="-692.8" font-family="Arial" font-weight="bold" font-size="14.00">FK</text>
<text text-anchor="start" x="1274" y="-692.8" font-family="Arial" font-size="14.00"> parkingLocationId : String</text>
<polygon fill="none" stroke="#1e3a8a" points="1248,-652 1248,-681 1467,-681 1467,-652 1248,-652"/>
<text text-anchor="start" x="1255" y="-663.8" font-family="Arial" font-weight="bold" font-size="14.00">FK</text>
<text text-anchor="start" x="1274" y="-663.8" font-family="Arial" font-size="14.00"> reservationId : String UNIQUE</text>
<polygon fill="none" stroke="#1e3a8a" points="1248,-623 1248,-652 1467,-652 1467,-623 1248,-623"/>
<text text-anchor="start" x="1255" y="-633.8" font-family="Arial" font-size="14.00">rating : Int</text>
<polygon fill="none" stroke="#1e3a8a" points="1248,-594 1248,-623 1467,-623 1467,-594 1248,-594"/>
<text text-anchor="start" x="1255" y="-604.8" font-family="Arial" font-size="14.00">comment : String?</text>
<polygon fill="none" stroke="#1e3a8a" points="1248,-565 1248,-594 1467,-594 1467,-565 1248,-565"/>
<text text-anchor="start" x="1255" y="-575.8" font-family="Arial" font-size="14.00">createdAt : DateTime</text>
<polygon fill="none" stroke="#1e3a8a" points="1246.5,-564 1246.5,-798 1467.5,-798 1467.5,-564 1246.5,-564"/>
</g>
<!-- users&#45;&gt;reviews -->
<g id="edge11" class="edge">
<title>users&#45;&gt;reviews</title>
<path fill="none" stroke="#334155" d="M123,-779.94C123,-710.74 123,-643 123,-643 123,-643 1238.4,-643 1238.4,-643"/>
<polygon fill="#334155" stroke="#334155" points="1238.4,-645.8 1246.4,-643 1238.4,-640.2 1238.4,-645.8"/>
<text text-anchor="middle" x="703" y="-602" font-family="Arial" font-size="10.00">1 : N</text>
</g>
<!-- notifications -->
<g id="node10" class="node">
<title>notifications</title>
<polygon fill="#1e3a8a" stroke="transparent" points="334.5,-507 334.5,-536 477.5,-536 477.5,-507 334.5,-507"/>
<polygon fill="none" stroke="#1e3a8a" points="334.5,-507 334.5,-536 477.5,-536 477.5,-507 334.5,-507"/>
<text text-anchor="start" x="365.5" y="-518.8" font-family="Arial" font-weight="bold" font-size="14.00" fill="white">notifications</text>
<polygon fill="none" stroke="#1e3a8a" points="334.5,-478 334.5,-507 477.5,-507 477.5,-478 334.5,-478"/>
<text text-anchor="start" x="341.5" y="-489.8" font-family="Arial" font-weight="bold" font-size="14.00">PK</text>
<text text-anchor="start" x="360.5" y="-489.8" font-family="Arial" font-size="14.00"> id : String (UUID)</text>
<polygon fill="none" stroke="#1e3a8a" points="334.5,-449 334.5,-478 477.5,-478 477.5,-449 334.5,-449"/>
<text text-anchor="start" x="341.5" y="-460.8" font-family="Arial" font-weight="bold" font-size="14.00">FK</text>
<text text-anchor="start" x="360.5" y="-460.8" font-family="Arial" font-size="14.00"> userId : String</text>
<polygon fill="none" stroke="#1e3a8a" points="334.5,-420 334.5,-449 477.5,-449 477.5,-420 334.5,-420"/>
<text text-anchor="start" x="341.5" y="-430.8" font-family="Arial" font-size="14.00">title : String</text>
<polygon fill="none" stroke="#1e3a8a" points="334.5,-391 334.5,-420 477.5,-420 477.5,-391 334.5,-391"/>
<text text-anchor="start" x="341.5" y="-401.8" font-family="Arial" font-size="14.00">body : String</text>
<polygon fill="none" stroke="#1e3a8a" points="334.5,-362 334.5,-391 477.5,-391 477.5,-362 334.5,-362"/>
<text text-anchor="start" x="341.5" y="-372.8" font-family="Arial" font-size="14.00">isRead : Boolean</text>
<polygon fill="none" stroke="#1e3a8a" points="334.5,-333 334.5,-362 477.5,-362 477.5,-333 334.5,-333"/>
<text text-anchor="start" x="341.5" y="-343.8" font-family="Arial" font-size="14.00">type : String</text>
<polygon fill="none" stroke="#1e3a8a" points="334.5,-304 334.5,-333 477.5,-333 477.5,-304 334.5,-304"/>
<text text-anchor="start" x="341.5" y="-314.8" font-family="Arial" font-size="14.00">data : Json?</text>
<polygon fill="none" stroke="#1e3a8a" points="334.5,-275 334.5,-304 477.5,-304 477.5,-275 334.5,-275"/>
<text text-anchor="start" x="341.5" y="-285.8" font-family="Arial" font-size="14.00">createdAt : DateTime</text>
<polygon fill="none" stroke="#1e3a8a" points="333,-274.5 333,-537.5 478,-537.5 478,-274.5 333,-274.5"/>
</g>
<!-- users&#45;&gt;notifications -->
<g id="edge14" class="edge">
<title>users&#45;&gt;notifications</title>
<path fill="none" stroke="#334155" d="M82,-779.77C82,-625.96 82,-406 82,-406 82,-406 324.9,-406 324.9,-406"/>
<polygon fill="#334155" stroke="#334155" points="324.9,-408.8 332.9,-406 324.9,-403.2 324.9,-408.8"/>
<text text-anchor="middle" x="230.5" y="-409" font-family="Arial" font-size="10.00">1 : N</text>
</g>
<!-- admin_actions -->
<g id="node11" class="node">
<title>admin_actions</title>
<polygon fill="#1e3a8a" stroke="transparent" points="334.5,-204 334.5,-233 477.5,-233 477.5,-204 334.5,-204"/>
<polygon fill="none" stroke="#1e3a8a" points="334.5,-204 334.5,-233 477.5,-233 477.5,-204 334.5,-204"/>
<text text-anchor="start" x="358" y="-215.8" font-family="Arial" font-weight="bold" font-size="14.00" fill="white">admin_actions</text>
<polygon fill="none" stroke="#1e3a8a" points="334.5,-175 334.5,-204 477.5,-204 477.5,-175 334.5,-175"/>
<text text-anchor="start" x="341.5" y="-186.8" font-family="Arial" font-weight="bold" font-size="14.00">PK</text>
<text text-anchor="start" x="360.5" y="-186.8" font-family="Arial" font-size="14.00"> id : String (UUID)</text>
<polygon fill="none" stroke="#1e3a8a" points="334.5,-146 334.5,-175 477.5,-175 477.5,-146 334.5,-146"/>
<text text-anchor="start" x="341.5" y="-157.8" font-family="Arial" font-weight="bold" font-size="14.00">FK</text>
<text text-anchor="start" x="360.5" y="-157.8" font-family="Arial" font-size="14.00"> adminId : String</text>
<polygon fill="none" stroke="#1e3a8a" points="334.5,-117 334.5,-146 477.5,-146 477.5,-117 334.5,-117"/>
<text text-anchor="start" x="341.5" y="-127.8" font-family="Arial" font-size="14.00">action : String</text>
<polygon fill="none" stroke="#1e3a8a" points="334.5,-88 334.5,-117 477.5,-117 477.5,-88 334.5,-88"/>
<text text-anchor="start" x="341.5" y="-98.8" font-family="Arial" font-size="14.00">targetType : String</text>
<polygon fill="none" stroke="#1e3a8a" points="334.5,-59 334.5,-88 477.5,-88 477.5,-59 334.5,-59"/>
<text text-anchor="start" x="341.5" y="-69.8" font-family="Arial" font-size="14.00">targetId : String</text>
<polygon fill="none" stroke="#1e3a8a" points="334.5,-30 334.5,-59 477.5,-59 477.5,-30 334.5,-30"/>
<text text-anchor="start" x="341.5" y="-40.8" font-family="Arial" font-size="14.00">note : String?</text>
<polygon fill="none" stroke="#1e3a8a" points="334.5,-1 334.5,-30 477.5,-30 477.5,-1 334.5,-1"/>
<text text-anchor="start" x="341.5" y="-11.8" font-family="Arial" font-size="14.00">createdAt : DateTime</text>
<polygon fill="none" stroke="#1e3a8a" points="333,0 333,-234 478,-234 478,0 333,0"/>
</g>
<!-- users&#45;&gt;admin_actions -->
<g id="edge15" class="edge">
<title>users&#45;&gt;admin_actions</title>
<path fill="none" stroke="#334155" d="M41,-779.96C41,-546.94 41,-117 41,-117 41,-117 324.61,-117 324.61,-117"/>
<polygon fill="#334155" stroke="#334155" points="324.61,-119.8 332.61,-117 324.61,-114.2 324.61,-119.8"/>
<text text-anchor="middle" x="230.5" y="-120" font-family="Arial" font-size="10.00">1 : N admin</text>
</g>
<!-- parking_spots -->
<g id="node4" class="node">
<title>parking_spots</title>
<polygon fill="#1e3a8a" stroke="transparent" points="608,-1190 608,-1219 798,-1219 798,-1190 608,-1190"/>
<polygon fill="none" stroke="#1e3a8a" points="608,-1190 608,-1219 798,-1219 798,-1190 608,-1190"/>
<text text-anchor="start" x="656.5" y="-1201.8" font-family="Arial" font-weight="bold" font-size="14.00" fill="white">parking_spots</text>
<polygon fill="none" stroke="#1e3a8a" points="608,-1161 608,-1190 798,-1190 798,-1161 608,-1161"/>
<text text-anchor="start" x="615" y="-1172.8" font-family="Arial" font-weight="bold" font-size="14.00">PK</text>
<text text-anchor="start" x="634" y="-1172.8" font-family="Arial" font-size="14.00"> id : String (UUID)</text>
<polygon fill="none" stroke="#1e3a8a" points="608,-1132 608,-1161 798,-1161 798,-1132 608,-1132"/>
<text text-anchor="start" x="615" y="-1143.8" font-family="Arial" font-weight="bold" font-size="14.00">FK</text>
<text text-anchor="start" x="634" y="-1143.8" font-family="Arial" font-size="14.00"> parkingLocationId : String</text>
<polygon fill="none" stroke="#1e3a8a" points="608,-1103 608,-1132 798,-1132 798,-1103 608,-1103"/>
<text text-anchor="start" x="615" y="-1113.8" font-family="Arial" font-size="14.00">spotNumber : String</text>
<polygon fill="none" stroke="#1e3a8a" points="608,-1074 608,-1103 798,-1103 798,-1074 608,-1074"/>
<text text-anchor="start" x="615" y="-1084.8" font-family="Arial" font-size="14.00">status : ParkingSpotStatus</text>
<polygon fill="none" stroke="#1e3a8a" points="608,-1045 608,-1074 798,-1074 798,-1045 608,-1045"/>
<text text-anchor="start" x="615" y="-1055.8" font-family="Arial" font-size="14.00">isAvailable : Boolean</text>
<polygon fill="none" stroke="#1e3a8a" points="607,-1044 607,-1220 799,-1220 799,-1044 607,-1044"/>
</g>
<!-- parking_locations&#45;&gt;parking_spots -->
<g id="edge3" class="edge">
<title>parking_locations&#45;&gt;parking_spots</title>
<path fill="none" stroke="#334155" d="M513.32,-1087C513.32,-1087 598.88,-1087 598.88,-1087"/>
<polygon fill="#334155" stroke="#334155" points="598.88,-1089.8 606.88,-1087 598.88,-1084.2 598.88,-1089.8"/>
<text text-anchor="middle" x="560" y="-1099" font-family="Arial" font-size="10.00">1 : N</text>
</g>
<!-- parking_locations&#45;&gt;reservations -->
<g id="edge5" class="edge">
<title>parking_locations&#45;&gt;reservations</title>
<path fill="none" stroke="#334155" d="M513.15,-978.5C513.15,-978.5 896.75,-978.5 896.75,-978.5"/>
<polygon fill="#334155" stroke="#334155" points="896.75,-981.3 904.75,-978.5 896.75,-975.7 896.75,-981.3"/>
<text text-anchor="middle" x="703" y="-996" font-family="Arial" font-size="10.00">1 : N</text>
</g>
<!-- parking_images -->
<g id="node8" class="node">
<title>parking_images</title>
<polygon fill="#1e3a8a" stroke="transparent" points="608,-883 608,-912 798,-912 798,-883 608,-883"/>
<polygon fill="none" stroke="#1e3a8a" points="608,-883 608,-912 798,-912 798,-883 608,-883"/>
<text text-anchor="start" x="651" y="-894.8" font-family="Arial" font-weight="bold" font-size="14.00" fill="white">parking_images</text>
<polygon fill="none" stroke="#1e3a8a" points="608,-854 608,-883 798,-883 798,-854 608,-854"/>
<text text-anchor="start" x="615" y="-865.8" font-family="Arial" font-weight="bold" font-size="14.00">PK</text>
<text text-anchor="start" x="634" y="-865.8" font-family="Arial" font-size="14.00"> id : String (UUID)</text>
<polygon fill="none" stroke="#1e3a8a" points="608,-825 608,-854 798,-854 798,-825 608,-825"/>
<text text-anchor="start" x="615" y="-836.8" font-family="Arial" font-weight="bold" font-size="14.00">FK</text>
<text text-anchor="start" x="634" y="-836.8" font-family="Arial" font-size="14.00"> parkingLocationId : String</text>
<polygon fill="none" stroke="#1e3a8a" points="608,-796 608,-825 798,-825 798,-796 608,-796"/>
<text text-anchor="start" x="615" y="-806.8" font-family="Arial" font-size="14.00">imageUrl : String</text>
<polygon fill="none" stroke="#1e3a8a" points="608,-767 608,-796 798,-796 798,-767 608,-767"/>
<text text-anchor="start" x="615" y="-777.8" font-family="Arial" font-size="14.00">isPrimary : Boolean</text>
<polygon fill="none" stroke="#1e3a8a" points="608,-738 608,-767 798,-767 798,-738 608,-738"/>
<text text-anchor="start" x="615" y="-748.8" font-family="Arial" font-size="14.00">createdAt : DateTime</text>
<polygon fill="none" stroke="#1e3a8a" points="607,-737 607,-913 799,-913 799,-737 607,-737"/>
</g>
<!-- parking_locations&#45;&gt;parking_images -->
<g id="edge10" class="edge">
<title>parking_locations&#45;&gt;parking_images</title>
<path fill="none" stroke="#334155" d="M513.32,-825C513.32,-825 598.88,-825 598.88,-825"/>
<polygon fill="#334155" stroke="#334155" points="598.88,-827.8 606.88,-825 598.88,-822.2 598.88,-827.8"/>
<text text-anchor="middle" x="560" y="-828" font-family="Arial" font-size="10.00">1 : N</text>
</g>
<!-- parking_locations&#45;&gt;reviews -->
<g id="edge12" class="edge">
<title>parking_locations&#45;&gt;reviews</title>
<path fill="none" stroke="#334155" d="M513.26,-729.5C513.26,-729.5 1238.18,-729.5 1238.18,-729.5"/>
<polygon fill="#334155" stroke="#334155" points="1238.18,-732.3 1246.18,-729.5 1238.18,-726.7 1238.18,-732.3"/>
<text text-anchor="middle" x="852" y="-682" font-family="Arial" font-size="10.00">1 : N</text>
</g>
<!-- parking_spots&#45;&gt;reservations -->
<g id="edge6" class="edge">
<title>parking_spots&#45;&gt;reservations</title>
<path fill="none" stroke="#334155" d="M799.07,-1132C799.07,-1132 896.91,-1132 896.91,-1132"/>
<polygon fill="#334155" stroke="#334155" points="896.91,-1134.8 904.91,-1132 896.91,-1129.2 896.91,-1134.8"/>
<text text-anchor="middle" x="852" y="-1120" font-family="Arial" font-size="10.00">0..1 : N</text>
</g>
<!-- reservations&#45;&gt;payments -->
<g id="edge7" class="edge">
<title>reservations&#45;&gt;payments</title>
<path fill="none" stroke="#334155" d="M1130.08,-1276.75C1130.08,-1276.75 1224.73,-1276.75 1224.73,-1276.75"/>
<polygon fill="#334155" stroke="#334155" points="1224.73,-1279.55 1232.73,-1276.75 1224.73,-1273.95 1224.73,-1279.55"/>
<text text-anchor="middle" x="1181.5" y="-1254" font-family="Arial" font-size="10.00">1 : 0..1</text>
</g>
<!-- qr_tickets -->
<g id="node7" class="node">
<title>qr_tickets</title>
<polygon fill="#1e3a8a" stroke="transparent" points="1248,-1160 1248,-1189 1467,-1189 1467,-1160 1248,-1160"/>
<polygon fill="none" stroke="#1e3a8a" points="1248,-1160 1248,-1189 1467,-1189 1467,-1160 1248,-1160"/>
<text text-anchor="start" x="1325.5" y="-1171.8" font-family="Arial" font-weight="bold" font-size="14.00" fill="white">qr_tickets</text>
<polygon fill="none" stroke="#1e3a8a" points="1248,-1131 1248,-1160 1467,-1160 1467,-1131 1248,-1131"/>
<text text-anchor="start" x="1255" y="-1142.8" font-family="Arial" font-weight="bold" font-size="14.00">PK</text>
<text text-anchor="start" x="1274" y="-1142.8" font-family="Arial" font-size="14.00"> id : String (UUID)</text>
<polygon fill="none" stroke="#1e3a8a" points="1248,-1102 1248,-1131 1467,-1131 1467,-1102 1248,-1102"/>
<text text-anchor="start" x="1255" y="-1113.8" font-family="Arial" font-weight="bold" font-size="14.00">FK</text>
<text text-anchor="start" x="1274" y="-1113.8" font-family="Arial" font-size="14.00"> reservationId : String UNIQUE</text>
<polygon fill="none" stroke="#1e3a8a" points="1248,-1073 1248,-1102 1467,-1102 1467,-1073 1248,-1073"/>
<text text-anchor="start" x="1255" y="-1083.8" font-family="Arial" font-size="14.00">ticketData : Json</text>
<polygon fill="none" stroke="#1e3a8a" points="1248,-1044 1248,-1073 1467,-1073 1467,-1044 1248,-1044"/>
<text text-anchor="start" x="1255" y="-1054.8" font-family="Arial" font-size="14.00">isUsed : Boolean</text>
<polygon fill="none" stroke="#1e3a8a" points="1248,-1015 1248,-1044 1467,-1044 1467,-1015 1248,-1015"/>
<text text-anchor="start" x="1255" y="-1025.8" font-family="Arial" font-size="14.00">createdAt : DateTime</text>
<polygon fill="none" stroke="#1e3a8a" points="1246.5,-1014 1246.5,-1190 1467.5,-1190 1467.5,-1014 1246.5,-1014"/>
</g>
<!-- reservations&#45;&gt;qr_tickets -->
<g id="edge9" class="edge">
<title>reservations&#45;&gt;qr_tickets</title>
<path fill="none" stroke="#334155" d="M1130.08,-1102C1130.08,-1102 1238.46,-1102 1238.46,-1102"/>
<polygon fill="#334155" stroke="#334155" points="1238.46,-1104.8 1246.46,-1102 1238.46,-1099.2 1238.46,-1104.8"/>
<text text-anchor="middle" x="1181.5" y="-1105" font-family="Arial" font-size="10.00">1 : 0..1</text>
</g>
<!-- reservations&#45;&gt;reviews -->
<g id="edge13" class="edge">
<title>reservations&#45;&gt;reviews</title>
<path fill="none" stroke="#334155" d="M1018,-883.08C1018,-819.82 1018,-767.5 1018,-767.5 1018,-767.5 1238.47,-767.5 1238.47,-767.5"/>
<polygon fill="#334155" stroke="#334155" points="1238.47,-770.3 1246.47,-767.5 1238.47,-764.7 1238.47,-770.3"/>
<text text-anchor="middle" x="1181.5" y="-900" font-family="Arial" font-size="10.00">1 : 0..1</text>
</g>
</g>
</svg>
